<svg width="24" height="24" viewBox="0 0 24 24" fill="none" xmlns="http://www.w3.org/2000/svg">
<path fill-rule="evenodd" clip-rule="evenodd" d="M10.55 19.6999L12 20.9999L13.45 19.6999C15.1333 18.1832 16.525 16.8749 17.625 15.7749C18.725 14.6749 19.6 13.6874 20.25 12.8124C20.9 11.9374 21.3542 11.1332 21.6125 10.3999C21.8708 9.66657 22 8.91657 22 8.1499C22 6.58324 21.475 5.2749 20.425 4.2249C19.375 3.1749 18.0667 2.6499 16.5 2.6499C15.6333 2.6499 14.8083 2.83324 14.025 3.1999C13.2417 3.56657 12.5667 4.08324 12 4.7499C11.4333 4.08324 10.7583 3.56657 9.975 3.1999C9.19167 2.83324 8.36667 2.6499 7.5 2.6499C5.93333 2.6499 4.625 3.1749 3.575 4.2249C2.525 5.2749 2 6.58324 2 8.1499C2 8.91657 2.12917 9.66657 2.3875 10.3999C2.64583 11.1332 3.1 11.9374 3.75 12.8124C4.4 13.6874 5.275 14.6749 6.375 15.7749C7.475 16.8749 8.86667 18.1832 10.55 19.6999Z" fill="#FB5607"/>
</svg>
