<svg width="62" height="62" viewBox="0 0 62 62" fill="none" xmlns="http://www.w3.org/2000/svg">
<rect x="1" y="1" width="60" height="60" rx="30" fill="white"/>
<rect x="1" y="1" width="60" height="60" rx="30" stroke="#BFBFBF"/>
<path fill-rule="evenodd" clip-rule="evenodd" d="M42.52 31.2727C42.52 30.4218 42.4436 29.6036 42.3018 28.8181H31V33.4599H37.4582C37.18 34.9599 36.3345 36.2308 35.0636 37.0818V40.0927H38.9418C41.2109 38.0036 42.52 34.9272 42.52 31.2727Z" fill="#4285F4"/>
<path fill-rule="evenodd" clip-rule="evenodd" d="M31 43C34.24 43 36.9564 41.9255 38.9418 40.0928L35.0636 37.0818C33.9891 37.8018 32.6145 38.2273 31 38.2273C27.8745 38.2273 25.2291 36.1164 24.2855 33.28H20.2764V36.3891C22.2509 40.3109 26.3091 43 31 43Z" fill="#34A853"/>
<path fill-rule="evenodd" clip-rule="evenodd" d="M24.2855 33.2799C24.0455 32.5599 23.9091 31.7908 23.9091 30.9999C23.9091 30.209 24.0455 29.4399 24.2855 28.7199V25.6108H20.2764C19.4636 27.2308 19 29.0636 19 30.9999C19 32.9363 19.4636 34.769 20.2764 36.389L24.2855 33.2799Z" fill="#FBBC05"/>
<path fill-rule="evenodd" clip-rule="evenodd" d="M31 23.7727C32.7618 23.7727 34.3436 24.3782 35.5873 25.5673L39.0291 22.1255C36.9509 20.1891 34.2345 19 31 19C26.3091 19 22.2509 21.6891 20.2764 25.6109L24.2855 28.72C25.2291 25.8836 27.8745 23.7727 31 23.7727Z" fill="#EA4335"/>
</svg>
