<svg width="20" height="20" viewBox="0 0 20 20" fill="none" xmlns="http://www.w3.org/2000/svg">
<path d="M9.13277 0.495201C9.52241 -0.165066 10.4776 -0.165067 10.8672 0.4952L13.502 4.95999C13.6437 5.20002 13.8784 5.37061 14.1505 5.43115L19.211 6.55728C19.9593 6.72381 20.2545 7.63224 19.7469 8.20684L16.3149 12.0924C16.1304 12.3013 16.0407 12.5773 16.0672 12.8547L16.5599 18.0155C16.6328 18.7787 15.86 19.3401 15.1567 19.035L10.4008 16.9716C10.1451 16.8606 9.85489 16.8606 9.59921 16.9716L4.84329 19.035C4.13997 19.3401 3.36721 18.7787 3.44008 18.0155L3.93284 12.8547C3.95933 12.5773 3.86965 12.3013 3.68514 12.0924L0.25306 8.20684C-0.254487 7.63224 0.0406777 6.72382 0.789035 6.55728L5.8495 5.43115C6.12155 5.37061 6.35634 5.20002 6.49799 4.95999L9.13277 0.495201Z" fill="#FB5607"/>
</svg>
